<svg width="0" height="0" class="hidden">
  <symbol xmlns="http://www.w3.org/2000/svg" viewBox="0 0 512 407.864" id="bootstrap_logo">
    <path d="m106.344 0c-29.214 0-50.831 25.57-49.863 53.3.929 26.641-.278 61.145-8.964 89.283-8.717 28.217-23.449 46.098-47.517 48.393v25.912c24.068 2.3 38.8 20.172 47.516 48.393 8.687 28.138 9.893 62.642 8.964 89.283-.968 27.726 20.649 53.3 49.868 53.3h299.347c29.214 0 50.827-25.57 49.859-53.3-.929-26.641.278-61.145 8.964-89.283 8.717-28.221 23.413-46.1 47.482-48.393v-25.912c-24.068-2.3-38.764-20.172-47.482-48.393-8.687-28.134-9.893-62.642-8.964-89.283.968-27.726-20.645-53.3-49.859-53.3h-299.355zm240.775 251.067c0 38.183-28.481 61.34-75.746 61.34h-80.458a8.678 8.678 0 0 1 -8.678-8.678v-199.593a8.678 8.678 0 0 1 8.678-8.678h80c39.411 0 65.276 21.348 65.276 54.124 0 23.005-17.4 43.6-39.567 47.208v1.2c30.176 3.31 50.495 24.21 50.495 53.077zm-84.519-128.1h-45.876v64.8h38.639c29.87 0 46.34-12.028 46.34-33.527-.003-20.148-14.163-31.273-39.103-31.273zm-45.876 90.511v71.411h47.564c31.1 0 47.573-12.479 47.573-35.931s-16.935-35.484-49.573-35.484h-45.564z" fill="#7952b3" fill-rule="evenodd"></path>
  </symbol>
  <symbol xmlns="http://www.w3.org/2000/svg" viewBox="32.18585611720149 20.47 223.6851360941233 247.05999999999997" id="c_logo">
    <path d="M252.71 93.61a21.67 21.67 0 0 0-2.65-10.87 20.74 20.74 0 0 0-7.87-7.67Q198.77 50 155.32 25c-7.8-4.51-15.36-4.35-23.11.23C120.69 32 63 65.09 45.81 75.06c-7.08 4.1-10.52 10.38-10.52 18.54v100.8a21.77 21.77 0 0 0 2.55 10.66 20.63 20.63 0 0 0 8 7.88c17.19 10 74.89 43.05 86.41 49.85 7.75 4.58 15.31 4.74 23.12.23q43.41-25.08 86.87-50.09a20.63 20.63 0 0 0 8-7.88 21.77 21.77 0 0 0 2.55-10.66V93.61z" fill="#004482"></path>
    <path d="M252.73 194.4a21.72 21.72 0 0 1-2.55 10.66 18.58 18.58 0 0 1-1.45 2.24L144 144l98.19-68.93a20.72 20.72 0 0 1 7.86 7.67 21.57 21.57 0 0 1 2.66 10.87c.02 33.6.02 100.79.02 100.79z" fill="#00599c"></path>
    <path d="M250.05 82.74L37.81 205.06a21.75 21.75 0 0 1-2.53-10.65V93.6c0-8.16 3.45-14.44 10.52-18.54C63 65.09 120.69 32 132.22 25.21c7.73-4.58 15.3-4.74 23.1-.23q43.41 25.08 86.87 50.09a20.72 20.72 0 0 1 7.86 7.67z" fill="#659ad2"></path>
    <path d="M148.2 184.72a39.91 39.91 0 0 1-35-20.63q-.53-.94-1-1.92A39.94 39.94 0 0 1 179 119.4c.53.64 1 1.31 1.53 2 .24.33.48.66.7 1l35.07-20.2q-1.28-2.06-2.68-4c-.49-.69-1-1.35-1.48-2A79.9 79.9 0 0 0 78 181.92c.34.64.69 1.27 1 1.9a79.91 79.91 0 0 0 136.86 3.62l-34.29-20.73a39.88 39.88 0 0 1-33.37 18.01z" fill="#fff"></path>
  </symbol>
  <symbol version="1.1" id="c++_logo" xmlns="http://www.w3.org/2000/svg" xmlns:xlink="http://www.w3.org/1999/xlink" x="0px" y="0px" enable-background="new 0 0 306 344.35" xml:space="preserve" viewBox="0 0 306 344.35">
    <path fill="#00599C" d="M302.107,258.262c2.401-4.159,3.893-8.845,3.893-13.053V99.14c0-4.208-1.49-8.893-3.892-13.052L153,172.175
	L302.107,258.262z"></path>
    <path fill="#004482" d="M166.25,341.193l126.5-73.034c3.644-2.104,6.956-5.737,9.357-9.897L153,172.175L3.893,258.263
	c2.401,4.159,5.714,7.793,9.357,9.896l126.5,73.034C147.037,345.401,158.963,345.401,166.25,341.193z"></path>
    <path fill="#659AD2" d="M302.108,86.087c-2.402-4.16-5.715-7.793-9.358-9.897L166.25,3.156c-7.287-4.208-19.213-4.208-26.5,0
	L13.25,76.19C5.962,80.397,0,90.725,0,99.14v146.069c0,4.208,1.491,8.894,3.893,13.053L153,172.175L302.108,86.087z"></path>
    <g>
      <path fill="#FFFFFF" d="M153,274.175c-56.243,0-102-45.757-102-102s45.757-102,102-102c36.292,0,70.139,19.53,88.331,50.968
		l-44.143,25.544c-9.105-15.736-26.038-25.512-44.188-25.512c-28.122,0-51,22.878-51,51c0,28.121,22.878,51,51,51
		c18.152,0,35.085-9.776,44.191-25.515l44.143,25.543C223.142,254.644,189.294,274.175,153,274.175z"></path>
    </g>
    <g>
      <polygon fill="#FFFFFF" points="255,166.508 243.666,166.508 243.666,155.175 232.334,155.175 232.334,166.508 221,166.508 
		221,177.841 232.334,177.841 232.334,189.175 243.666,189.175 243.666,177.841 255,177.841 	"></polygon>
    </g>
    <g>
      <polygon fill="#FFFFFF" points="297.5,166.508 286.166,166.508 286.166,155.175 274.834,155.175 274.834,166.508 263.5,166.508 
		263.5,177.841 274.834,177.841 274.834,189.175 286.166,189.175 286.166,177.841 297.5,177.841 	"></polygon>
    </g>
  </symbol>
  <symbol fill="none" xmlns="http://www.w3.org/2000/svg" viewBox="0 0 124 141.53" id="css_logo">
    <path d="M10.383 126.892L0 0l124 .255-10.979 126.637-50.553 14.638z" fill="#1b73ba"></path>
    <path d="M62.468 129.275V12.085l51.064.17-9.106 104.85z" fill="#1c88c7"></path>
    <path d="M100.851 27.064H22.298l2.128 15.318h37.276l-36.68 15.745 2.127 14.808h54.043l-1.958 20.68-18.298 3.575-16.595-4.255-1.277-11.745H27.83l2.042 24.426 32.681 9.106 31.32-9.957 4-47.745H64.765l36.085-14.978z" fill="#fff"></path>
  </symbol>
  <symbol xmlns="http://www.w3.org/2000/svg" viewBox="0 0 271.7 179.7" id="cuda_logo">
    <path d="M101.3 53.6V37.4c1.6-.1 3.2-.2 4.8-.2 44.4-1.4 73.5 38.2 73.5 38.2S148.2 119 114.5 119c-4.5 0-8.9-.7-13.1-2.1V67.7c17.3 2.1 20.8 9.7 31.1 27l23.1-19.4s-16.9-22.1-45.3-22.1c-3-.1-6 .1-9 .4m0-53.6v24.2l4.8-.3c61.7-2.1 102 50.6 102 50.6s-46.2 56.2-94.3 56.2c-4.2 0-8.3-.4-12.4-1.1v15c3.4.4 6.9.7 10.3.7 44.8 0 77.2-22.9 108.6-49.9 5.2 4.2 26.5 14.3 30.9 18.7-29.8 25-99.3 45.1-138.7 45.1-3.8 0-7.4-.2-11-.6v21.1h170.2V0H101.3zm0 116.9v12.8c-41.4-7.4-52.9-50.5-52.9-50.5s19.9-22 52.9-25.6v14h-.1c-17.3-2.1-30.9 14.1-30.9 14.1s7.7 27.3 31 35.2M27.8 77.4s24.5-36.2 73.6-40V24.2C47 28.6 0 74.6 0 74.6s26.6 77 101.3 84v-14c-54.8-6.8-73.5-67.2-73.5-67.2z" fill="#76b900"></path>
  </symbol>
  <symbol xmlns="http://www.w3.org/2000/svg" viewBox="0 0 32 32" id="git_logo">
    <path d="M31.396 14.575L17.425.604a2.06 2.06 0 0 0-2.914 0l-2.9 2.9 3.68 3.68c.856-.3 1.836-.095 2.518.587a2.45 2.45 0 0 1 .581 2.533l3.547 3.547c.858-.296 1.848-.105 2.533.582a2.45 2.45 0 1 1-3.469 3.468c-.72-.72-.898-1.78-.534-2.667l-3.308-3.308v8.705a2.5 2.5 0 0 1 .65.464 2.45 2.45 0 1 1-3.468 3.468 2.45 2.45 0 0 1 0-3.468c.237-.236.5-.415.803-.535v-8.786c-.292-.12-.566-.297-.803-.535a2.45 2.45 0 0 1-.528-2.681l-3.63-3.628-9.58 9.57a2.06 2.06 0 0 0 0 2.915l13.972 13.97a2.06 2.06 0 0 0 2.914 0L31.396 17.5a2.06 2.06 0 0 0 0-2.915" fill="#f03c2e"></path>
  </symbol>
  <symbol xmlns="http://www.w3.org/2000/svg" viewBox="15.7 3.6 94.4 121.6" id="go_logo">
    <path clip-rule="evenodd" d="m21.1 68.7c.2 3.5 3.7 1.9 5.3.8 1.5-1.1 2-.2 2.1-2.3.1-1.4.2-2.7.2-4.1-2.3-.2-4.8.3-6.7 1.7-.9.7-2.8 3-.9 3.9" fill="#f6d2a2" fill-rule="evenodd"></path>
    <path d="m23 71.2c-.7 0-2-.3-2.2-2.3-.6-.4-.8-.9-.8-1.2-.1-1.2 1.2-2.6 1.9-3.1 1.6-1.2 3.7-1.8 5.9-1.8h1.3v.3c.1 1.1 0 2.2-.1 3.2 0 .3 0 .6-.1.9-.1 1.5-.4 1.7-1.1 2-.3.1-.6.2-1.1.6-.5.3-2.2 1.4-3.7 1.4zm4.8-7.8c-2.1 0-4 .6-5.5 1.7-.7.5-1.7 1.7-1.6 2.5 0 .3.2.6.6.8l.2.1v.2c.1 1.6.9 1.8 1.5 1.8 1 0 2.4-.7 3.3-1.3.6-.4 1-.5 1.3-.6.5-.2.6-.2.7-1.4 0-.3 0-.6.1-.9.1-.9.1-1.9.1-2.8-.3-.1-.5-.1-.7-.1z"></path>
    <path clip-rule="evenodd" d="m21.1 68.7c.5-.2 1.1-.3 1.4-.8" fill="#c6b198" fill-rule="evenodd"></path>
    <path d="m21.1 69c-.1 0-.3-.1-.3-.2-.1-.2 0-.4.2-.4.1 0 .2-.1.2-.1.4-.2.8-.3 1-.6.1-.1.3-.2.5-.1.1.1.2.3.1.5-.4.5-.9.7-1.3.8l-.2.1z"></path>
    <path clip-rule="evenodd" d="m29.3 26.4c-13.6-3.8-3.5-21.1 7.4-14z" fill="#6ad7e5" fill-rule="evenodd"></path>
    <path d="m29.5 26.8-.3-.1c-7-2-6.9-7-6.7-8.5.5-3.8 4.1-7.8 8.9-7.8 1.9 0 3.7.6 5.5 1.8l.3.2zm1.9-15.7c-4.5 0-7.8 3.7-8.3 7.2-.5 3.6 1.7 6.4 6 7.7l7.1-13.5c-1.5-.9-3.1-1.4-4.8-1.4z"></path>
    <path clip-rule="evenodd" d="m89.6 11.1c10.7-7.5 20.5 9.5 8 13.8z" fill="#6ad7e5" fill-rule="evenodd"></path>
    <path d="m97.5 25.3-8.3-14.3.3-.2c1.9-1.3 3.8-2 5.7-2 4.6 0 7.9 3.8 8.6 7.5.3 1.5.6 6.6-6 8.8zm-7.4-14 7.7 13.3c3.9-1.4 5.9-4.4 5.3-8-.6-3.4-3.7-6.9-7.9-6.9-1.7-.1-3.4.4-5.1 1.6z"></path>
    <path clip-rule="evenodd" d="m92 112.3c2.7 1.7 7.7 6.8 3.6 9.3-3.9 3.6-6.1-4-9.6-5 1.5-2 3.4-3.9 6-4.3" fill="#f6d2a2" fill-rule="evenodd"></path>
    <path d="m93.5 122.9c-1.6 0-3-1.6-4.2-3.1-1.1-1.2-2.2-2.5-3.4-2.9l-.5-.1.3-.4c1.2-1.7 3.2-3.9 6.2-4.4h.1l.1.1c1.7 1.1 5.4 4.2 5.3 7.1 0 1.1-.6 2-1.7 2.7-.7.7-1.4 1-2.2 1zm-7-6.5c1.2.5 2.2 1.8 3.2 2.9 1.2 1.5 2.4 2.8 3.7 2.8.6 0 1.2-.3 1.8-.9h.1c.9-.6 1.4-1.3 1.4-2.2 0-2.3-2.9-5.2-4.9-6.5-1.8.5-3.6 1.7-5.3 3.9zm9.1 5.5c-.1 0-.2-.1-.3-.2-.2-.4-.4-.9-.5-1.3-.3-.8-.6-1.6-1.2-2.2-.1-.1-.1-.3 0-.5.1-.1.3-.1.5 0 .7.7 1.1 1.6 1.4 2.5l.5 1.2c.1.2 0 .4-.1.5z"></path>
    <path clip-rule="evenodd" d="m43.2 118.1c-3.2.5-5 3.4-7.7 4.9-2.5 1.5-3.5-.5-3.7-.9-.4-.2-.4.2-1-.4-2.3-3.7 2.4-6.4 4.9-8.2 3.5-.8 5.7 2.2 7.5 4.6" fill="#f6d2a2" fill-rule="evenodd"></path>
    <path d="m33.8 123.8c-1.3 0-2-1.1-2.2-1.5h-.1c-.3 0-.5-.1-.9-.5v-.1c-2.2-3.5 1.6-6.2 4.1-8l.9-.6h.2c.4-.1.7-.1 1.1-.1 3 0 4.9 2.6 6.5 4.7l.5.7-.6.1c-1.9.3-3.3 1.5-4.7 2.7-.9.8-1.8 1.5-2.8 2.1-.8.3-1.4.5-2 .5zm-2.2-2.1c.1 0 .2 0 .4.1h.1l.1.1c.2.3.7 1.2 1.7 1.2.5 0 1-.2 1.5-.5 1-.5 1.9-1.3 2.7-2 1.3-1.1 2.7-2.3 4.5-2.8-1.5-2-3.3-4.2-5.8-4.2-.3 0-.6 0-.9.1l-.8.6c-2.6 1.8-5.8 4.1-3.9 7.1.1.2.2.3.4.3zm.2.7c-.2 0-.4-.2-.3-.4.1-1 .6-1.7 1.1-2.5.3-.4.5-.8.7-1.2.1-.2.3-.2.4-.2.2.1.2.3.2.4-.2.5-.5.9-.8 1.3-.5.7-.9 1.3-1 2.1 0 .4-.1.5-.3.5z"></path>
    <path clip-rule="evenodd" d="m29.9 21.7c-1.8-.9-3.1-2.2-2-4.3 1-1.9 2.9-1.7 4.7-.8zm64.9-1.8c1.8-.9 3.1-2.2 2-4.3-1-1.9-2.9-1.7-4.7-.8z" fill-rule="evenodd"></path>
    <path clip-rule="evenodd" d="m107.1 68.2c-.2 3.5-3.7 1.9-5.3.8-1.5-1.1-2-.2-2.1-2.3-.1-1.4-.2-2.7-.2-4.1 2.3-.2 4.8.3 6.7 1.7 1 .8 2.8 3 .9 3.9" fill="#f6d2a2" fill-rule="evenodd"></path>
    <path d="m105.3 70.7c-1.5 0-3.2-1.1-3.7-1.4s-.8-.5-1.1-.6c-.8-.3-1-.5-1.1-2 0-.3 0-.6-.1-.9-.1-1-.2-2.1-.1-3.2v-.3h1.3c2.2 0 4.3.6 5.9 1.8.7.5 2 1.9 1.9 3.1 0 .4-.2.9-.8 1.2-.2 2-1.5 2.3-2.2 2.3zm-5.5-7.7c0 .9 0 1.9.1 2.8 0 .3 0 .6.1.9.1 1.2.2 1.2.7 1.4.3.1.7.3 1.3.6.9.6 2.3 1.3 3.3 1.3.6 0 1.4-.2 1.5-1.8v-.2l.2-.1c.4-.2.6-.4.6-.8.1-.8-.9-2-1.6-2.5-1.5-1.1-3.5-1.7-5.5-1.7-.2.1-.4.1-.7.1z"></path>
    <path clip-rule="evenodd" d="m107.1 68.2c-.5-.2-1.1-.3-1.4-.8" fill="#c6b198" fill-rule="evenodd"></path>
    <path d="m107.1 68.6h-.1l-.2-.1c-.5-.2-1-.3-1.3-.8-.1-.1-.1-.4.1-.5.1-.1.4-.1.5.1.2.3.6.4 1 .6.1 0 .2.1.2.1.2.1.3.3.2.4s-.3.2-.4.2z"></path>
    <path clip-rule="evenodd" d="m62.8 4c13.6 0 26.3 1.9 33 15 6 14.6 3.8 30.4 4.8 45.9.8 13.3 2.5 28.6-3.6 40.9-6.5 12.9-22.7 16.2-36 15.7-10.5-.4-23.1-3.8-29.1-13.4-6.9-11.2-3.7-27.9-3.2-40.4.6-14.8-4-29.7.9-44.1 4.9-15.1 18.5-18.5 33.2-19.6" fill="#6ad7e5" fill-rule="evenodd"></path>
    <path d="m63.3 121.9h-2.5c-4.1-.1-10.3-.8-16.4-3.3-5.9-2.4-10.2-5.8-13-10.3-5.6-9.1-4.6-21.6-3.7-32.7.2-2.8.4-5.4.5-7.9.2-5.2-.2-10.6-.7-15.7-.8-9.4-1.6-19.1 1.5-28.5 2.4-7 6.7-12 13.2-15.2 5.1-2.5 11.4-3.9 20.4-4.6 13.4-.1 26.7 1.8 33.4 15.1 4.4 10.7 4.4 22.2 4.5 33.3 0 4.2 0 8.5.3 12.7.1 1.3.2 2.6.2 3.9.8 12.2 1.7 26-3.9 37.2-2.8 5.7-7.7 9.9-14.4 12.6-5.4 2.2-12.2 3.4-19.4 3.4zm-.5-117.6c-14.1 1.1-27.9 4.2-33 19.4-3.1 9.3-2.3 18.9-1.5 28.2.4 5.2.9 10.5.7 15.8-.1 2.5-.3 5.1-.5 7.9-.9 11-1.9 23.4 3.6 32.3 2.3 3.7 9.7 12.5 28.8 13.2h2.5c22.1 0 30.3-9.8 33.3-15.6 5.5-11 4.6-24.8 3.9-36.9-.1-1.3-.2-2.6-.2-3.9-.2-4.2-.3-8.5-.3-12.7-.1-11-.1-22.5-4.4-33.1-3-5.9-7.5-9.9-13.7-12.2-6.4-2.1-13.6-2.4-19.2-2.4z"></path>
    <path clip-rule="evenodd" d="m65.2 22.2c2.4 14.2 25.6 10.4 22.3-3.9-3-12.8-23.1-9.2-22.3 3.9" fill="#fff" fill-rule="evenodd"></path>
    <path d="m76.2 31.5c-4.5 0-10.2-2.4-11.4-9.2-.2-3.2.8-6.1 2.9-8.3 2.3-2.5 5.8-3.9 9.4-3.9 4.2 0 9.2 2.2 10.6 8.3.8 3.4.2 6.4-1.7 8.8-2.1 2.6-5.8 4.3-9.8 4.3zm-10.7-9.3c.5 2.8 1.8 5 3.9 6.6 1.8 1.4 4.3 2.1 6.8 2.1 3.7 0 7.3-1.6 9.3-4.1 1.8-2.2 2.3-5.1 1.6-8.3-1.3-5.7-6-7.7-10-7.7-3.4 0-6.7 1.4-8.9 3.7-1.9 2-2.9 4.7-2.7 7.7z"></path>
    <path clip-rule="evenodd" d="m37.5 24.5c3.2 12.3 22.9 9.2 22.2-3.2-.9-14.8-25.3-12-22.2 3.2" fill="#fff" fill-rule="evenodd"></path>
    <path d="m48 32.7c-4.3 0-9.3-2.1-10.9-8.1-.7-3.5 0-6.7 2-9.1 2.2-2.7 5.8-4.3 9.7-4.3 5.2 0 10.7 3.1 11.1 10.1.2 2.9-.7 5.5-2.7 7.6-2.1 2.3-5.6 3.8-9.2 3.8zm.8-20.8c-3.7 0-7.1 1.5-9.2 4-1.9 2.3-2.5 5.2-1.8 8.5 1.4 5.6 6.2 7.6 10.2 7.6 3.4 0 6.7-1.3 8.8-3.6 1.8-1.9 2.7-4.4 2.5-7.1-.2-4.3-3.1-9.4-10.5-9.4z"></path>
    <path clip-rule="evenodd" d="m68 39.2c0 1.8.4 3.9.1 5.9-.5.9-1.4 1-2.2 1.3-1.1-.2-2-.9-2.5-1.9-.3-2.2.1-4.4.2-6.6z" fill="#fff" fill-rule="evenodd"></path>
    <path d="m65.9 46.8c-1.3-.2-2.3-1-2.8-2.1-.2-1.6-.1-3.1 0-4.6.1-.7.1-1.4.1-2.1v-.4l5.1 1.6v.2c0 .6.1 1.2.1 1.9.1 1.3.2 2.7 0 4v.1c-.4.8-1.1 1-1.8 1.3-.2-.1-.4 0-.7.1zm-2.2-2.4c.4.9 1.2 1.5 2.1 1.7.2-.1.4-.1.5-.2.6-.2 1.1-.4 1.4-.9.2-1.2.1-2.5 0-3.8 0-.6-.1-1.2-.1-1.7l-3.8-1.2c0 .6-.1 1.2-.1 1.7-.1 1.6-.2 3 0 4.4z"></path>
    <g clip-rule="evenodd" fill-rule="evenodd">
      <path d="m46.3 22.5c0 2-1.5 3.6-3.3 3.6s-3.3-1.6-3.3-3.6 1.5-3.6 3.3-3.6 3.3 1.6 3.3 3.6"></path>
      <path d="m45.2 23.3c0 .5-.4.9-.8.9s-.8-.4-.8-.9.4-.9.8-.9c.5 0 .8.4.8.9" fill="#fff"></path>
      <path d="m74.2 21.6c0 2-1.5 3.6-3.3 3.6s-3.3-1.6-3.3-3.6 1.5-3.6 3.3-3.6 3.3 1.6 3.3 3.6"></path>
      <path d="m73.2 22.4c0 .5-.3.9-.8.9-.4 0-.8-.4-.8-.9s.3-.9.8-.9c.4 0 .8.4.8.9m-14.8 16.6c-1.5 3.5.8 10.6 4.8 5.4-.3-2.2.1-4.4.2-6.6z" fill="#fff"></path>
    </g>
    <path d="m60.5 46.6c-.7 0-1.4-.4-1.9-1.2-1.1-1.6-1.3-4.6-.5-6.5l.1-.2 5.5-1.4v.4l-.1 2.2c-.1 1.5-.2 2.9 0 4.4v.1l-.1.1c-1 1.4-2 2.1-3 2.1zm-1.8-7.3c-.6 1.7-.4 4.4.5 5.7.4.6.8.9 1.3.9.7 0 1.5-.6 2.3-1.6-.2-1.5-.1-3 .1-4.4l.1-1.7z"></path>
    <path clip-rule="evenodd" d="m58.9 32.2c-2.7.2-4.9 3.5-3.5 6 1.9 3.4 6-.3 8.6 0 3 .1 5.4 3.2 7.8.6 2.7-2.9-1.2-5.7-4.1-7z" fill="#f6d2a2" fill-rule="evenodd"></path>
    <path d="m69.7 40.2c-.9 0-1.8-.4-2.7-.8s-1.9-.8-3-.8h-.3c-.8 0-1.7.3-2.7.7-1.1.4-2.2.7-3.2.7-1.2 0-2.1-.5-2.7-1.6-.7-1.2-.6-2.6.1-3.9.8-1.5 2.2-2.4 3.7-2.6l8.9-.4h.1c2.2.9 4.7 2.6 5.2 4.6.2 1-.1 2-.9 2.9s-1.6 1.2-2.5 1.2zm-5.6-2.2c1.1 0 2.2.5 3.2.9.9.4 1.7.7 2.5.7.7 0 1.3-.3 1.9-.9.7-.7.9-1.5.8-2.3-.4-1.7-2.8-3.3-4.7-4.1l-8.7.4c-1.3.1-2.5 1-3.2 2.2-.6 1.1-.6 2.3-.1 3.3.5.9 1.1 1.3 2.1 1.3.9 0 1.9-.4 2.9-.7 1.1-.4 2-.7 3-.7 0-.2.1-.2.3-.1z" fill="#231f20"></path>
    <path clip-rule="evenodd" d="m58.6 32.1c-.2-4.7 8.8-5.3 9.8-1.4 1.1 4-9.4 4.9-9.8 1.4" fill-rule="evenodd"></path>
  </symbol>
  <symbol xmlns="http://www.w3.org/2000/svg" version="1.1" viewBox="0 0 280 280" id="gurobi_logo">
    <path d="M 122.988 2.396 C 121.070 3.715, 114.325 8.142, 108 12.236 C 97.195 19.229, 92.656 22.154, 74.750 33.658 C 70.763 36.220, 63.225 41.095, 58 44.492 C 52.775 47.889, 44 53.519, 38.500 57.004 C 33 60.488, 27.909 63.870, 27.187 64.518 C 26.153 65.447, 28.599 66.563, 38.687 69.768 C 54.131 74.675, 88.481 85.367, 120 95.078 C 125.775 96.857, 137.250 100.489, 145.500 103.149 C 153.750 105.809, 160.950 107.981, 161.500 107.976 C 162.050 107.970, 163.596 105.386, 164.936 102.233 C 166.276 99.080, 168.825 93.350, 170.602 89.500 C 172.378 85.650, 176.170 77.325, 179.028 71 C 181.886 64.675, 185.480 56.800, 187.015 53.500 C 194.478 37.450, 204 15.880, 204 15.023 C 204 14.644, 198.713 13.323, 192.250 12.087 C 181.341 10, 167.307 7.273, 140.802 2.092 C 127.449 -0.519, 127.226 -0.515, 122.988 2.396 M 207.010 30.599 C 204.805 35.329, 203 39.362, 203 39.561 C 203 39.761, 201.463 43.203, 199.584 47.212 C 197.705 51.220, 193.831 59.675, 190.975 66 C 188.119 72.325, 184.515 80.200, 182.965 83.500 C 181.415 86.800, 177.636 95.045, 174.566 101.821 L 168.984 114.143 173.538 129.321 C 176.042 137.670, 178.739 146.750, 179.530 149.500 C 180.322 152.250, 183.166 161.925, 185.851 171 C 188.537 180.075, 192.881 194.925, 195.506 204 C 204.172 233.962, 212.139 261.063, 214.727 269.376 L 216.244 274.252 247.149 243.347 L 278.053 212.443 272.457 196.472 C 269.380 187.687, 265.508 176.675, 263.853 172 C 262.199 167.325, 259.783 160.350, 258.484 156.500 C 257.186 152.650, 254.694 145.450, 252.948 140.500 C 251.202 135.550, 247.825 125.875, 245.444 119 C 243.063 112.125, 240.136 103.800, 238.939 100.500 C 237.743 97.200, 234.822 88.875, 232.449 82 C 230.077 75.125, 225.146 60.950, 221.493 50.500 C 217.840 40.050, 214.192 29.363, 213.387 26.750 C 212.581 24.137, 211.719 22, 211.471 22 C 211.223 22, 209.216 25.870, 207.010 30.599 M 28.813 76.683 C 29.534 76.972, 30.397 76.936, 30.729 76.604 C 31.061 76.272, 30.471 76.036, 29.417 76.079 C 28.252 76.127, 28.015 76.364, 28.813 76.683 M 57.813 85.683 C 58.534 85.972, 59.397 85.936, 59.729 85.604 C 60.061 85.272, 59.471 85.036, 58.417 85.079 C 57.252 85.127, 57.015 85.364, 57.813 85.683 M 17.158 90 C 17.158 91.375, 17.385 91.938, 17.662 91.250 C 17.940 90.563, 17.940 89.438, 17.662 88.750 C 17.385 88.063, 17.158 88.625, 17.158 90 M 86.813 94.683 C 87.534 94.972, 88.397 94.936, 88.729 94.604 C 89.061 94.272, 88.471 94.036, 87.417 94.079 C 86.252 94.127, 86.015 94.364, 86.813 94.683 M 16.079 96.583 C 16.127 97.748, 16.364 97.985, 16.683 97.188 C 16.972 96.466, 16.936 95.603, 16.604 95.271 C 16.272 94.939, 16.036 95.529, 16.079 96.583 M 15.079 102.583 C 15.127 103.748, 15.364 103.985, 15.683 103.188 C 15.972 102.466, 15.936 101.603, 15.604 101.271 C 15.272 100.939, 15.036 101.529, 15.079 102.583 M 108.813 101.683 C 109.534 101.972, 110.397 101.936, 110.729 101.604 C 111.061 101.272, 110.471 101.036, 109.417 101.079 C 108.252 101.127, 108.015 101.364, 108.813 101.683 M 118.813 104.683 C 119.534 104.972, 120.397 104.936, 120.729 104.604 C 121.061 104.272, 120.471 104.036, 119.417 104.079 C 118.252 104.127, 118.015 104.364, 118.813 104.683 M 13.158 115 C 13.158 116.375, 13.385 116.938, 13.662 116.250 C 13.940 115.563, 13.940 114.438, 13.662 113.750 C 13.385 113.063, 13.158 113.625, 13.158 115 M 147.813 113.683 C 148.534 113.972, 149.397 113.936, 149.729 113.604 C 150.061 113.272, 149.471 113.036, 148.417 113.079 C 147.252 113.127, 147.015 113.364, 147.813 113.683 M 157 116.383 C 157 116.594, 157.901 117.002, 159.001 117.290 C 160.102 117.578, 160.751 117.405, 160.442 116.907 C 159.904 116.036, 157 115.594, 157 116.383 M 163.079 126.583 C 163.127 127.748, 163.364 127.985, 163.683 127.188 C 163.972 126.466, 163.936 125.603, 163.604 125.271 C 163.272 124.939, 163.036 125.529, 163.079 126.583 M 11.079 127.583 C 11.127 128.748, 11.364 128.985, 11.683 128.188 C 11.972 127.466, 11.936 126.603, 11.604 126.271 C 11.272 125.939, 11.036 126.529, 11.079 127.583 M 10.195 134.500 C 10.215 136.150, 10.439 136.704, 10.693 135.731 C 10.947 134.758, 10.930 133.408, 10.656 132.731 C 10.382 132.054, 10.175 132.850, 10.195 134.500 M 9.079 141.583 C 9.127 142.748, 9.364 142.985, 9.683 142.188 C 9.972 141.466, 9.936 140.603, 9.604 140.271 C 9.272 139.939, 9.036 140.529, 9.079 141.583 M 169.079 147.583 C 169.127 148.748, 169.364 148.985, 169.683 148.188 C 169.972 147.466, 169.936 146.603, 169.604 146.271 C 169.272 145.939, 169.036 146.529, 169.079 147.583 M 7.195 154.500 C 7.215 156.150, 7.439 156.704, 7.693 155.731 C 7.947 154.758, 7.930 153.408, 7.656 152.731 C 7.382 152.054, 7.175 152.850, 7.195 154.500 M 4.195 173.500 C 4.215 175.150, 4.439 175.704, 4.693 174.731 C 4.947 173.758, 4.930 172.408, 4.656 171.731 C 4.382 171.054, 4.175 171.850, 4.195 173.500 M 3.079 180.583 C 3.127 181.748, 3.364 181.985, 3.683 181.188 C 3.972 180.466, 3.936 179.603, 3.604 179.271 C 3.272 178.939, 3.036 179.529, 3.079 180.583 M 181.079 188.583 C 181.127 189.748, 181.364 189.985, 181.683 189.188 C 181.972 188.466, 181.936 187.603, 181.604 187.271 C 181.272 186.939, 181.036 187.529, 181.079 188.583 M 1.195 193.500 C 1.215 195.150, 1.439 195.704, 1.693 194.731 C 1.947 193.758, 1.930 192.408, 1.656 191.731 C 1.382 191.054, 1.175 191.850, 1.195 193.500 M 14.813 209.683 C 15.534 209.972, 16.397 209.936, 16.729 209.604 C 17.061 209.272, 16.471 209.036, 15.417 209.079 C 14.252 209.127, 14.015 209.364, 14.813 209.683 M 191.079 222.583 C 191.127 223.748, 191.364 223.985, 191.683 223.188 C 191.972 222.466, 191.936 221.603, 191.604 221.271 C 191.272 220.939, 191.036 221.529, 191.079 222.583 M 60.813 225.683 C 61.534 225.972, 62.397 225.936, 62.729 225.604 C 63.061 225.272, 62.471 225.036, 61.417 225.079 C 60.252 225.127, 60.015 225.364, 60.813 225.683 M 194.079 232.583 C 194.127 233.748, 194.364 233.985, 194.683 233.188 C 194.972 232.466, 194.936 231.603, 194.604 231.271 C 194.272 230.939, 194.036 231.529, 194.079 232.583 M 86.813 234.683 C 87.534 234.972, 88.397 234.936, 88.729 234.604 C 89.061 234.272, 88.471 234.036, 87.417 234.079 C 86.252 234.127, 86.015 234.364, 86.813 234.683 M 200.079 253.583 C 200.127 254.748, 200.364 254.985, 200.683 254.188 C 200.972 253.466, 200.936 252.603, 200.604 252.271 C 200.272 251.939, 200.036 252.529, 200.079 253.583 M 203.079 263.583 C 203.127 264.748, 203.364 264.985, 203.683 264.188 C 203.972 263.466, 203.936 262.603, 203.604 262.271 C 203.272 261.939, 203.036 262.529, 203.079 263.583 M 205.638 274.500 C 205.322 275.325, 205.499 276, 206.031 276 C 206.564 276, 207 275.325, 207 274.500 C 207 273.675, 206.823 273, 206.607 273 C 206.391 273, 205.955 273.675, 205.638 274.500" stroke="none" fill="#c31b14" fill-rule="evenodd"></path>
    <path d="M 19.060 81.250 C 18.443 85.237, 17.075 93.900, 16.019 100.500 C 14.963 107.100, 13.389 117.225, 12.520 123 C 11.652 128.775, 10.313 137.550, 9.545 142.500 C 6.936 159.325, 4.916 172.477, 3.401 182.500 C 2.570 188, 1.465 194.938, 0.945 197.917 C 0.425 200.896, 0.176 203.510, 0.392 203.725 C 0.607 203.941, 5.895 205.912, 12.142 208.105 C 31.182 214.790, 49.132 221.030, 56.500 223.524 C 60.350 224.828, 72.050 228.882, 82.500 232.535 C 92.950 236.188, 103.300 239.776, 105.500 240.509 C 107.700 241.243, 118.050 244.836, 128.500 248.493 C 138.950 252.151, 150.875 256.268, 155 257.642 C 159.125 259.016, 172.108 263.513, 183.850 267.636 C 195.593 271.759, 205.453 274.881, 205.761 274.573 C 206.286 274.047, 204.430 266.579, 201.516 257.500 C 200.810 255.300, 199.524 251.025, 198.657 248 C 197.178 242.834, 195.458 236.941, 184.508 199.500 C 182.095 191.250, 178.299 178.200, 176.072 170.500 C 173.846 162.800, 171.349 154.250, 170.525 151.500 C 169.700 148.750, 168.363 144.250, 167.554 141.500 C 166.744 138.750, 164.811 132.250, 163.257 127.055 L 160.432 117.610 144.966 112.734 C 136.460 110.053, 125 106.463, 119.500 104.756 C 114 103.049, 105 100.216, 99.500 98.459 C 94 96.703, 84.775 93.820, 79 92.054 C 59.162 85.987, 39.487 79.870, 30.376 76.937 C 25.357 75.322, 21.011 74, 20.716 74 C 20.422 74, 19.676 77.263, 19.060 81.250" stroke="none" fill="#eb3323" fill-rule="evenodd"></path>
  </symbol>
  <symbol xmlns="http://www.w3.org/2000/svg" viewBox="0 0 32 32" id="html_logo">
    <path d="M4.46 28.802L1.892.001h28.216l-2.57 28.797L15.982 32z" fill="#e44d26"></path>
    <path d="M25.337 26.964l2.197-24.608H16v27.197z" fill="#f16529"></path>
    <path d="M15.988 5.888H7.142l.953 10.682H16v-3.532h-4.674l-.323-3.617H16V5.888zM16 22.2l-.015.004-3.934-1.062-.25-2.817H8.253l.495 5.546 7.236 2 .016-.005z" fill="#ebebeb"></path>
    <path d="M15.988 16.57h4.35l-.4 4.58-3.94 1.063v3.675l7.242-2.007.97-10.845H16zm8.764-9.734l.084-.948h-8.85V9.42h8.532l.07-.794z" fill="#fff"></path>
  </symbol>
  <symbol xmlns="http://www.w3.org/2000/svg" viewBox="0 0 32 32" id="java_logo">
    <path d="M11.622 24.74s-1.23.748.855.962c2.51.32 3.847.267 6.625-.267a10.02 10.02 0 0 0 1.763.855c-6.25 2.672-14.16-.16-9.244-1.55zm-.8-3.473s-1.336 1.015.748 1.23c2.725.267 4.862.32 8.55-.427a3.26 3.26 0 0 0 1.282.801c-7.534 2.244-15.976.214-10.58-1.603zm14.747 6.09s.908.748-1.015 1.336c-3.58 1.07-15.014 1.39-18.22 0-1.122-.48 1.015-1.175 1.7-1.282.695-.16 1.07-.16 1.07-.16-1.23-.855-8.175 1.763-3.526 2.51 12.77 2.084 23.296-.908 19.983-2.404zM12.2 17.633s-5.824 1.39-2.084 1.87c1.603.214 4.755.16 7.694-.053 2.404-.214 4.81-.64 4.81-.64s-.855.374-1.443.748c-5.93 1.55-17.312.855-14.052-.748 2.778-1.336 5.076-1.175 5.076-1.175zm10.42 5.824c5.984-3.1 3.206-6.09 1.282-5.717-.48.107-.695.214-.695.214s.16-.32.534-.427c3.794-1.336 6.786 4.007-1.23 6.09 0 0 .053-.053.107-.16zm-9.83 8.442c5.77.374 14.587-.214 14.8-2.94 0 0-.427 1.07-4.755 1.87-4.916.908-11.007.8-14.587.214 0 0 .748.64 4.542.855z" fill="#4e7896"></path>
    <path d="M18.996.001s3.313 3.366-3.152 8.442c-5.183 4.114-1.175 6.465 0 9.137-3.046-2.725-5.236-5.13-3.74-7.373C14.294 6.893 20.332 5.3 18.996.001zm-1.7 15.335c1.55 1.763-.427 3.366-.427 3.366s3.954-2.03 2.137-4.542c-1.656-2.404-2.94-3.58 4.007-7.587 0 0-10.953 2.725-5.717 8.763z" fill="#f58219"></path>
  </symbol>
  <symbol xmlns="http://www.w3.org/2000/svg" preserveAspectRatio="xMinYMin meet" viewBox="0 0 256 256" id="javascript_logo">
    <path d="M0 0h256v256H0V0z" fill="#F7DF1E"></path>
    <path d="M67.312 213.932l19.59-11.856c3.78 6.701 7.218 12.371 15.465 12.371 7.905 0 12.89-3.092 12.89-15.12v-81.798h24.057v82.138c0 24.917-14.606 36.259-35.916 36.259-19.245 0-30.416-9.967-36.087-21.996M152.381 211.354l19.588-11.341c5.157 8.421 11.859 14.607 23.715 14.607 9.969 0 16.325-4.984 16.325-11.858 0-8.248-6.53-11.17-17.528-15.98l-6.013-2.58c-17.357-7.387-28.87-16.667-28.87-36.257 0-18.044 13.747-31.792 35.228-31.792 15.294 0 26.292 5.328 34.196 19.247L210.29 147.43c-4.125-7.389-8.591-10.31-15.465-10.31-7.046 0-11.514 4.468-11.514 10.31 0 7.217 4.468 10.14 14.778 14.608l6.014 2.577c20.45 8.765 31.963 17.7 31.963 37.804 0 21.654-17.012 33.51-39.867 33.51-22.339 0-36.774-10.654-43.819-24.574"></path>
  </symbol>
  <symbol xmlns="http://www.w3.org/2000/svg" viewBox="0 0 25.6 25.6" id="mysql_logo">
    <path d="M179.076 94.886c-3.568-.1-6.336.268-8.656 1.25-.668.27-1.74.27-1.828 1.116.357.355.4.936.713 1.428.535.893 1.473 2.096 2.32 2.72l2.855 2.053c1.74 1.07 3.703 1.695 5.398 2.766.982.625 1.963 1.428 2.945 2.098.5.357.803.938 1.428 1.16v-.135c-.312-.4-.402-.98-.713-1.428l-1.34-1.293c-1.293-1.74-2.9-3.258-4.64-4.506-1.428-.982-4.55-2.32-5.13-3.97l-.088-.1c.98-.1 2.14-.447 3.078-.715 1.518-.4 2.9-.312 4.46-.713l2.143-.625v-.4c-.803-.803-1.383-1.874-2.23-2.632-2.275-1.963-4.775-3.882-7.363-5.488-1.383-.892-3.168-1.473-4.64-2.23-.537-.268-1.428-.402-1.74-.848-.805-.98-1.25-2.275-1.83-3.436l-3.658-7.763c-.803-1.74-1.295-3.48-2.275-5.086-4.596-7.585-9.594-12.18-17.268-16.687-1.65-.937-3.613-1.34-5.7-1.83l-3.346-.18c-.715-.312-1.428-1.16-2.053-1.562-2.543-1.606-9.102-5.086-10.977-.5-1.205 2.9 1.785 5.755 2.8 7.228.76 1.026 1.74 2.186 2.277 3.346.3.758.4 1.562.713 2.365.713 1.963 1.383 4.15 2.32 5.98.5.937 1.025 1.92 1.65 2.767.357.5.982.714 1.115 1.517-.625.893-.668 2.23-1.025 3.347-1.607 5.042-.982 11.288 1.293 15 .715 1.115 2.4 3.57 4.686 2.632 2.008-.803 1.56-3.346 2.14-5.577.135-.535.045-.892.312-1.25v.1l1.83 3.703c1.383 2.186 3.793 4.462 5.8 5.98 1.07.803 1.918 2.187 3.256 2.677v-.135h-.088c-.268-.4-.67-.58-1.027-.892-.803-.803-1.695-1.785-2.32-2.677-1.873-2.498-3.523-5.265-4.996-8.12-.715-1.383-1.34-2.9-1.918-4.283-.27-.536-.27-1.34-.715-1.606-.67.98-1.65 1.83-2.143 3.034-.848 1.918-.936 4.283-1.248 6.737-.18.045-.1 0-.18.1-1.426-.356-1.918-1.83-2.453-3.078-1.338-3.168-1.562-8.254-.402-11.913.312-.937 1.652-3.882 1.117-4.774-.27-.848-1.16-1.338-1.652-2.008-.58-.848-1.203-1.918-1.605-2.855-1.07-2.5-1.605-5.265-2.766-7.764-.537-1.16-1.473-2.365-2.232-3.435-.848-1.205-1.783-2.053-2.453-3.48-.223-.5-.535-1.294-.178-1.83.088-.357.268-.5.623-.58.58-.5 2.232.134 2.812.4 1.65.67 3.033 1.294 4.416 2.23.625.446 1.295 1.294 2.098 1.518h.938c1.428.312 3.033.1 4.37.5 2.365.76 4.506 1.874 6.426 3.08 5.844 3.703 10.664 8.968 13.92 15.26.535 1.026.758 1.963 1.25 3.034.938 2.187 2.098 4.417 3.033 6.56.938 2.097 1.83 4.24 3.168 5.98.67.937 3.346 1.427 4.55 1.918.893.4 2.275.76 3.08 1.25 1.516.937 3.033 2.008 4.46 3.034.713.534 2.945 1.65 3.078 2.54zm-45.5-38.772a7.09 7.09 0 0 0-1.828.223v.1h.088c.357.714.982 1.205 1.428 1.83l1.027 2.142.088-.1c.625-.446.938-1.16.938-2.23-.268-.312-.312-.625-.535-.937-.268-.446-.848-.67-1.206-1.026z" transform="matrix(.390229 0 0 .38781 -46.300037 -16.856717)" fill-rule="evenodd" fill="#00678c"></path>
  </symbol>
  <symbol xmlns="http://www.w3.org/2000/svg" preserveAspectRatio="xMidYMid" fill="#8cc84b" viewBox="0 0 32 32" id="nodejs_logo">
    <path d="M14.656.427c.8-.453 1.82-.455 2.6 0L29.2 7.16c.747.42 1.247 1.253 1.24 2.114v13.5c.005.897-.544 1.748-1.332 2.16l-11.88 6.702a2.6 2.6 0 0 1-2.639-.073l-3.565-2.06c-.243-.145-.516-.26-.688-.495.152-.204.422-.23.642-.32.496-.158.95-.4 1.406-.656.115-.08.256-.05.366.022l3.04 1.758c.217.125.437-.04.623-.145l11.665-6.583c.144-.07.224-.222.212-.38V9.334c.016-.18-.087-.344-.25-.417L16.19 2.244a.41.41 0 0 0-.465-.001L3.892 8.93c-.16.073-.27.235-.25.415v13.37c-.014.158.07.307.215.375l3.162 1.785c.594.32 1.323.5 1.977.265a1.5 1.5 0 0 0 .971-1.409l.003-13.29c-.014-.197.172-.36.363-.34h1.52c.2-.005.357.207.33.405L12.18 23.88c.001 1.188-.487 2.48-1.586 3.063-1.354.7-3.028.553-4.366-.12l-3.4-1.88c-.8-.4-1.337-1.264-1.332-2.16v-13.5a2.46 2.46 0 0 1 1.282-2.141L14.656.427zM18.1 9.785c1.727-.1 3.576-.066 5.13.785 1.203.652 1.87 2.02 1.892 3.358-.034.18-.222.28-.394.267-.5-.001-1.002.007-1.504-.003-.213.008-.336-.188-.363-.376-.144-.64-.493-1.273-1.095-1.582-.924-.463-1.996-.44-3.004-.43-.736.04-1.527.103-2.15.535-.48.328-.624 1-.453 1.522.16.383.603.506.964.62 2.082.544 4.287.5 6.33 1.207.845.292 1.672.86 1.962 1.745.378 1.186.213 2.604-.63 3.556-.684.784-1.68 1.2-2.675 1.442-1.323.295-2.695.302-4.038.17-1.263-.144-2.577-.476-3.552-1.336-.834-.724-1.24-1.852-1.2-2.94.01-.184.193-.312.37-.297h1.5c.202-.014.35.16.36.35.093.6.322 1.25.854 1.6 1.026.662 2.313.616 3.487.635.973-.043 2.065-.056 2.86-.7.42-.367.543-.98.43-1.508-.123-.446-.6-.653-1-.8-2.055-.65-4.285-.414-6.32-1.15-.826-.292-1.625-.844-1.942-1.693-.443-1.2-.24-2.687.693-3.607.9-.915 2.22-1.268 3.47-1.394z"></path>
  </symbol>
  <symbol xmlns="http://www.w3.org/2000/svg" xmlns:xlink="http://www.w3.org/1999/xlink" viewBox="0 0 48 48" id="opencv_logo">
    <defs>
      <path d="M-69.65 120.638a139.301 139.301 120 1 1 139.301 0L27.71 47.993a55.418 55.418 120 1 0-55.418 0z" id="A"></path>
    </defs>
    <g transform="matrix(1.275322 0 0 1.275322 -38.047246 -14.965624)">
      <use transform="matrix(.063405 0 0 .063405 29.66229 12.95855)" y="140" x="298" xlink:href="#A" fill="#ff0101"></use>
      <use transform="matrix(-.063405 0 0 -.063405 87.614835 65.58504)" y="415" x="457" xlink:href="#A" fill="#0101ff"></use>
      <use transform="matrix(-.031703 -.054911 .054911 -.031703 20.379704 60.225737)" y="415" x="142" xlink:href="#A" fill="#01ff01"></use>
    </g>
  </symbol>
  <symbol xmlns="http://www.w3.org/2000/svg" viewBox="0 0 48 48" id="python_logo">
    <path fill="#0277BD" d="M24.047,5c-1.555,0.005-2.633,0.142-3.936,0.367c-3.848,0.67-4.549,2.077-4.549,4.67V14h9v2H15.22h-4.35c-2.636,0-4.943,1.242-5.674,4.219c-0.826,3.417-0.863,5.557,0,9.125C5.851,32.005,7.294,34,9.931,34h3.632v-5.104c0-2.966,2.686-5.896,5.764-5.896h7.236c2.523,0,5-1.862,5-4.377v-8.586c0-2.439-1.759-4.263-4.218-4.672C27.406,5.359,25.589,4.994,24.047,5z M19.063,9c0.821,0,1.5,0.677,1.5,1.502c0,0.833-0.679,1.498-1.5,1.498c-0.837,0-1.5-0.664-1.5-1.498C17.563,9.68,18.226,9,19.063,9z"></path>
    <path fill="#FFC107" d="M23.078,43c1.555-0.005,2.633-0.142,3.936-0.367c3.848-0.67,4.549-2.077,4.549-4.67V34h-9v-2h9.343h4.35c2.636,0,4.943-1.242,5.674-4.219c0.826-3.417,0.863-5.557,0-9.125C41.274,15.995,39.831,14,37.194,14h-3.632v5.104c0,2.966-2.686,5.896-5.764,5.896h-7.236c-2.523,0-5,1.862-5,4.377v8.586c0,2.439,1.759,4.263,4.218,4.672C19.719,42.641,21.536,43.006,23.078,43z M28.063,39c-0.821,0-1.5-0.677-1.5-1.502c0-0.833,0.679-1.498,1.5-1.498c0.837,0,1.5,0.664,1.5,1.498C29.563,38.32,28.899,39,28.063,39z"></path>
  </symbol>
  <symbol xmlns="http://www.w3.org/2000/svg" viewBox="0 0 64 64" id="pytorch_logo">
    <g transform="matrix(2.21262 0 0 2.21262 -39.453867 -1.770085)" fill="#ee4c2c">
      <path d="M40.8 9.3l-2.1 2.1c3.5 3.5 3.5 9.2 0 12.7s-9.2 3.5-12.7 0-3.5-9.2 0-12.7l5.6-5.6.7-.8V.8l-8.5 8.5a11.89 11.89 0 0 0 0 16.9 11.89 11.89 0 0 0 16.9 0c4.8-4.7 4.8-12.3.1-16.9z"></path>
      <circle r="1.6" cy="7.1" cx="36.6"></circle>
    </g>
  </symbol>
</svg>